<svg id="visual" viewBox="0 0 960 300" width="960" height="300" xmlns="http://www.w3.org/2000/svg" xmlns:xlink="http://www.w3.org/1999/xlink" version="1.1"><path d="M0 261L17.8 263.5C35.7 266 71.3 271 106.8 273.3C142.3 275.7 177.7 275.3 213.2 273.7C248.7 272 284.3 269 320 267C355.7 265 391.3 264 426.8 265C462.3 266 497.7 269 533.2 269.3C568.7 269.7 604.3 267.3 640 267.5C675.7 267.7 711.3 270.3 746.8 271.5C782.3 272.7 817.7 272.3 853.2 271C888.7 269.7 924.3 267.3 942.2 266.2L960 265L960 301L942.2 301C924.3 301 888.7 301 853.2 301C817.7 301 782.3 301 746.8 301C711.3 301 675.7 301 640 301C604.3 301 568.7 301 533.2 301C497.7 301 462.3 301 426.8 301C391.3 301 355.7 301 320 301C284.3 301 248.7 301 213.2 301C177.7 301 142.3 301 106.8 301C71.3 301 35.7 301 17.8 301L0 301Z" fill="#ececec" stroke-linecap="round" stroke-linejoin="miter"></path></svg>