<?xml version="1.0" encoding="UTF-8" standalone="no"?>
<!-- Created with Inkscape (http://www.inkscape.org/) -->

<svg
   width="5.7694626mm"
   height="4.935379mm"
   viewBox="0 0 5.7694626 4.935379"
   version="1.1"
   id="svg5"
   xml:space="preserve"
   inkscape:export-filename="favicon.svg"
   inkscape:export-xdpi="96"
   inkscape:export-ydpi="96"
   xmlns:inkscape="http://www.inkscape.org/namespaces/inkscape"
   xmlns:sodipodi="http://sodipodi.sourceforge.net/DTD/sodipodi-0.dtd"
   xmlns="http://www.w3.org/2000/svg"
   xmlns:svg="http://www.w3.org/2000/svg"><sodipodi:namedview
     id="namedview7"
     pagecolor="#ffffff"
     bordercolor="#000000"
     borderopacity="0.25"
     inkscape:showpageshadow="2"
     inkscape:pageopacity="0.0"
     inkscape:pagecheckerboard="0"
     inkscape:deskcolor="#d1d1d1"
     inkscape:document-units="mm"
     showgrid="false" /><defs
     id="defs2" /><g
     inkscape:label="Layer 1"
     inkscape:groupmode="layer"
     id="layer1"
     transform="translate(-49.048413,-79.505079)"><path
       id="path2597"
       style="fill:#000000;fill-opacity:1;stroke-width:0.221491"
       d="m 49.833008,81.515874 c -0.07674,0.224449 -0.114976,0.460996 -0.114856,0.709572 1.48e-4,0.306247 0.05835,0.594056 0.174554,0.863683 0.116209,0.269629 0.27403,0.504214 0.473371,0.703408 0.199342,0.199195 0.433603,0.357014 0.703083,0.473372 0.26948,0.116356 0.557613,0.174553 0.864008,0.174553 0.306691,2.93e-4 0.5945,-0.05805 0.863685,-0.174553 0.269185,-0.116504 0.50377,-0.274177 0.703406,-0.473372 0.199638,-0.199194 0.357134,-0.433779 0.473047,-0.703408 0.115897,-0.269627 0.174094,-0.557436 0.174554,-0.863683 3.6e-4,-0.248576 -0.03775,-0.485123 -0.11453,-0.709572 a 2.5968136,1.3143474 0 0 1 -1.655666,0.52204 c 0.0075,0.107461 0.0503,0.200517 0.128807,0.279026 0.08667,0.08667 0.190624,0.130105 0.312444,0.130105 h 0.443198 c 0.110746,0 0.206575,-0.03531 0.287788,-0.105446 0.08121,-0.07014 0.131112,-0.15867 0.14957,-0.265725 1.68e-4,0.01831 0.0012,0.04135 0.0029,0.06911 0.0017,0.02776 0.0026,0.05462 0.0026,0.08046 0,0.494663 -0.17159,0.913607 -0.514901,1.256918 -0.343311,0.343309 -0.762256,0.514901 -1.256918,0.514901 -0.07737,1.25e-4 -0.152136,-0.0043 -0.224194,-0.01362 -0.07206,-0.0093 -0.145173,-0.02307 -0.219004,-0.04153 v -0.609316 h 0.664472 v -0.221599 c 0,-0.24364 -0.08671,-0.452038 -0.260208,-0.625538 -0.1735,-0.173502 -0.381899,-0.260209 -0.625538,-0.260209 h -1.107671 c 0,-0.173675 0.02127,-0.338145 0.06359,-0.493163 A 2.5968136,1.3143474 0 0 1 49.83299,81.51588 Z" /><path
       fill="currentColor"
       d="m 51.933147,79.505078 -2.884731,0.817596 2.884731,0.817597 2.403943,-0.681291 v 0.85649 h 0.480789 v -0.992796 z m -1.923395,1.342026 v 0.526766 a 2.4003371,1.1662432 0 0 0 1.923155,0.467198 2.4003371,1.1662432 0 0 0 1.923395,-0.467198 v -0.526649 l -1.923155,0.545103 z"
       id="path470"
       style="fill:#000000;fill-opacity:1;stroke-width:0.167565" /></g></svg>
